<svg xmlns="http://www.w3.org/2000/svg" xmlns:xlink="http://www.w3.org/1999/xlink" viewBox="0 0 188.2 220.03"><defs><style>.cls-1{fill:url(#Безымянный_градиент_258);}.cls-2{fill:url(#Безымянный_градиент_258-2);}.cls-3{fill:url(#Безымянный_градиент_258-3);}.cls-4{fill:url(#Безымянный_градиент_258-4);}.cls-5{fill:url(#Безымянный_градиент_258-5);}.cls-6{fill:url(#Безымянный_градиент_258-6);}.cls-7{fill:url(#Безымянный_градиент_258-7);}.cls-8{fill:url(#Безымянный_градиент_258-8);}.cls-9{fill:url(#Безымянный_градиент_258-9);}.cls-10{fill:url(#Безымянный_градиент_258-10);}.cls-11{fill:url(#Безымянный_градиент_258-11);}.cls-12{fill:url(#Безымянный_градиент_258-12);}.cls-13{fill:url(#Безымянный_градиент_258-13);}.cls-14{fill:url(#Безымянный_градиент_258-14);}.cls-15{fill:url(#Безымянный_градиент_258-15);}.cls-16{fill:url(#Безымянный_градиент_258-16);}.cls-17{fill:url(#Безымянный_градиент_258-17);}.cls-18{fill:url(#Безымянный_градиент_258-18);}.cls-19{fill:url(#Безымянный_градиент_258-19);}.cls-20{fill:url(#Безымянный_градиент_258-20);}.cls-21{fill:url(#Безымянный_градиент_258-21);}.cls-22{fill:url(#Безымянный_градиент_258-22);}.cls-23{fill:url(#Безымянный_градиент_264);}.cls-24{fill:url(#Безымянный_градиент_264-2);}.cls-25{fill:url(#Безымянный_градиент_264-3);}.cls-26{fill:url(#Безымянный_градиент_264-4);}.cls-27{fill:url(#Безымянный_градиент_264-5);}.cls-28{fill:url(#Безымянный_градиент_264-6);}.cls-29{fill:url(#Безымянный_градиент_264-7);}.cls-30{fill:url(#Безымянный_градиент_264-8);}.cls-31{fill:url(#Безымянный_градиент_264-9);}.cls-32{fill:url(#Безымянный_градиент_264-10);}.cls-33{fill:url(#Безымянный_градиент_264-11);}</style><linearGradient id="Безымянный_градиент_258" x1="131.34" y1="109.73" x2="182.08" y2="109.73" gradientUnits="userSpaceOnUse"><stop offset="0" stop-color="#b66802"/><stop offset="0.07" stop-color="#bf7009"/><stop offset="0.18" stop-color="#d9861b"/><stop offset="0.3" stop-color="#fda635"/><stop offset="0.55" stop-color="#fedcae"/><stop offset="0.76" stop-color="#fda635"/><stop offset="1" stop-color="#b66802"/></linearGradient><linearGradient id="Безымянный_градиент_258-2" x1="138.75" y1="118.28" x2="174.36" y2="118.28" xlink:href="#Безымянный_градиент_258"/><linearGradient id="Безымянный_градиент_258-3" x1="143.48" y1="126.96" x2="166.48" y2="126.96" xlink:href="#Безымянный_градиент_258"/><linearGradient id="Безымянный_градиент_258-4" x1="145.83" y1="135.78" x2="158.7" y2="135.78" xlink:href="#Безымянный_градиент_258"/><linearGradient id="Безымянный_градиент_258-5" x1="138.43" y1="144.74" x2="153.98" y2="144.74" xlink:href="#Безымянный_градиент_258"/><linearGradient id="Безымянный_градиент_258-6" x1="131.1" y1="153.86" x2="149.76" y2="153.86" xlink:href="#Безымянный_градиент_258"/><linearGradient id="Безымянный_градиент_258-7" x1="124.21" y1="163.15" x2="145.01" y2="163.15" xlink:href="#Безымянный_градиент_258"/><linearGradient id="Безымянный_градиент_258-8" x1="117.95" y1="172.61" x2="139.67" y2="172.61" xlink:href="#Безымянный_градиент_258"/><linearGradient id="Безымянный_градиент_258-9" x1="112.45" y1="182.26" x2="133.78" y2="182.26" xlink:href="#Безымянный_градиент_258"/><linearGradient id="Безымянный_градиент_258-10" x1="107.57" y1="192.09" x2="130.99" y2="192.09" xlink:href="#Безымянный_градиент_258"/><linearGradient id="Безымянный_градиент_258-11" x1="103.3" y1="202.14" x2="132.65" y2="202.14" xlink:href="#Безымянный_градиент_258"/><linearGradient id="Безымянный_градиент_258-12" x1="181.4" y1="109.73" x2="232.15" y2="109.73" xlink:href="#Безымянный_градиент_258"/><linearGradient id="Безымянный_градиент_258-13" x1="189.12" y1="118.28" x2="224.74" y2="118.28" xlink:href="#Безымянный_градиент_258"/><linearGradient id="Безымянный_градиент_258-14" x1="197.01" y1="126.96" x2="220" y2="126.96" xlink:href="#Безымянный_градиент_258"/><linearGradient id="Безымянный_градиент_258-15" x1="204.79" y1="135.78" x2="217.66" y2="135.78" xlink:href="#Безымянный_градиент_258"/><linearGradient id="Безымянный_градиент_258-16" x1="209.5" y1="144.74" x2="225.06" y2="144.74" xlink:href="#Безымянный_градиент_258"/><linearGradient id="Безымянный_градиент_258-17" x1="213.73" y1="153.86" x2="232.39" y2="153.86" xlink:href="#Безымянный_градиент_258"/><linearGradient id="Безымянный_градиент_258-18" x1="218.48" y1="163.15" x2="239.28" y2="163.15" xlink:href="#Безымянный_градиент_258"/><linearGradient id="Безымянный_градиент_258-19" x1="223.82" y1="172.61" x2="245.54" y2="172.61" xlink:href="#Безымянный_градиент_258"/><linearGradient id="Безымянный_градиент_258-20" x1="229.71" y1="182.26" x2="251.04" y2="182.26" xlink:href="#Безымянный_градиент_258"/><linearGradient id="Безымянный_градиент_258-21" x1="232.49" y1="192.09" x2="255.92" y2="192.09" xlink:href="#Безымянный_градиент_258"/><linearGradient id="Безымянный_градиент_258-22" x1="230.84" y1="202.14" x2="260.18" y2="202.14" xlink:href="#Безымянный_градиент_258"/><linearGradient id="Безымянный_градиент_264" x1="85.27" y1="275.22" x2="96.8" y2="275.22" gradientUnits="userSpaceOnUse"><stop offset="0" stop-color="#b66802"/><stop offset="0.11" stop-color="#bf7009"/><stop offset="0.28" stop-color="#d9861b"/><stop offset="0.49" stop-color="#fda635"/><stop offset="1" stop-color="#fedcae"/></linearGradient><linearGradient id="Безымянный_градиент_264-2" x1="101.78" y1="275.19" x2="112.62" y2="275.19" xlink:href="#Безымянный_градиент_264"/><linearGradient id="Безымянный_градиент_264-3" x1="116.9" y1="275.16" x2="130.99" y2="275.16" xlink:href="#Безымянный_градиент_264"/><linearGradient id="Безымянный_градиент_264-4" x1="134.41" y1="275.22" x2="145.94" y2="275.22" xlink:href="#Безымянный_градиент_264"/><linearGradient id="Безымянный_градиент_264-5" x1="150.9" y1="275.19" x2="162.2" y2="275.19" xlink:href="#Безымянный_градиент_264"/><linearGradient id="Безымянный_градиент_264-6" x1="175.57" y1="275.31" x2="188.91" y2="275.31" xlink:href="#Безымянный_градиент_264"/><linearGradient id="Безымянный_градиент_264-7" x1="193.36" y1="275.22" x2="204.89" y2="275.22" xlink:href="#Безымянный_градиент_264"/><linearGradient id="Безымянный_градиент_264-8" x1="210.2" y1="275.19" x2="223.66" y2="275.19" xlink:href="#Безымянный_градиент_264"/><linearGradient id="Безымянный_градиент_264-9" x1="229.27" y1="275.19" x2="243.28" y2="275.19" xlink:href="#Безымянный_градиент_264"/><linearGradient id="Безымянный_градиент_264-10" x1="249.03" y1="275.19" x2="254.91" y2="275.19" xlink:href="#Безымянный_градиент_264"/><linearGradient id="Безымянный_градиент_264-11" x1="259.63" y1="275.27" x2="273.47" y2="275.27" xlink:href="#Безымянный_градиент_264"/></defs><g id="logo"><path class="cls-1" d="M131.34,62.21c1.84.32,5.08,2,9.28,4.95A78.19,78.19,0,0,1,154,79.37a63.27,63.27,0,0,1,10.15,16,62.19,62.19,0,0,1,4.47,17,124.51,124.51,0,0,1,.59,16.56,120.71,120.71,0,0,0,.24,14.58c.47,4.29,1.64,7.84,3.81,10.13s5.27,3.34,8.79,3.42c-3.69.38-7-.35-9.43-2.45a11.44,11.44,0,0,1-2.87-4.09,22.41,22.41,0,0,1-1.47-5.74c-.59-4.26-.42-9.32-.31-14.61a136.89,136.89,0,0,0-.32-16.62,62.08,62.08,0,0,0-3.91-17,60.47,60.47,0,0,0-9.41-16,76.05,76.05,0,0,0-12.94-12.44A41.78,41.78,0,0,0,131.34,62.21Z" transform="translate(-85.27 -62.21)"/><path class="cls-2" d="M138.75,71.24a8.3,8.3,0,0,1,2.52.9,24.57,24.57,0,0,1,3.25,2.06c.76.56,1.56,1.2,2.37,1.91a50.89,50.89,0,0,1,5.18,5.2,54.39,54.39,0,0,1,4.86,6.54,53.28,53.28,0,0,1,6.54,15.25A66,66,0,0,1,165.18,120c-.07,3.74-.38,7.45-.74,11.06-.19,1.8-.39,3.58-.58,5.33-.3,2.65-.58,5.23-.76,7.68-.15,2.05-.23,4-.21,5.87l0,1a28.32,28.32,0,0,0,.45,4.18,16.09,16.09,0,0,0,1.37,4.27,10.36,10.36,0,0,0,1.22,2,9.16,9.16,0,0,0,1.11,1.21,9.82,9.82,0,0,0,3.24,2,11.66,11.66,0,0,0,1.91.52,12.34,12.34,0,0,0,2.14.19,14.4,14.4,0,0,1-3.94,0,10.56,10.56,0,0,1-3.41-1.08,8.86,8.86,0,0,1-1.82-1.27,10.71,10.71,0,0,1-2.68-3.95,19.76,19.76,0,0,1-1.26-5.49,69.69,69.69,0,0,1,.55-13.87c.52-4.38,1.16-9,1.55-13.61.08-.93.15-1.86.2-2.8a78.36,78.36,0,0,0,0-11.26q-.22-2.79-.69-5.55A53.41,53.41,0,0,0,160.71,98a51.83,51.83,0,0,0-3.36-7.63,50.55,50.55,0,0,0-3-4.86,53.1,53.1,0,0,0-4.14-5.24c-.81-.9-1.63-1.76-2.44-2.55-.61-.59-1.21-1.15-1.81-1.68A39.61,39.61,0,0,0,142,73c-.61-.4-1.19-.76-1.74-1.06A9.78,9.78,0,0,0,138.75,71.24Z" transform="translate(-85.27 -62.21)"/><path class="cls-3" d="M143.48,80.32a6.2,6.2,0,0,1,2.4.86,17.22,17.22,0,0,1,2.79,2.06,25.45,25.45,0,0,1,1.89,1.87,36.2,36.2,0,0,1,3.86,5,41.92,41.92,0,0,1,3.29,6.25,49.33,49.33,0,0,1,3.58,14.46,78.41,78.41,0,0,1-.65,16.68c-.51,3.7-1.18,7.37-1.86,11-.34,1.79-.68,3.55-1,5.29-.5,2.64-.95,5.2-1.28,7.66-.27,2-.46,4-.53,5.88,0,.34,0,.68,0,1a28.92,28.92,0,0,0,.23,4.25A17.47,17.47,0,0,0,157.3,167a11.48,11.48,0,0,0,1.09,2.06,9.72,9.72,0,0,0,4.07,3.55,9.27,9.27,0,0,0,1.86.64,8.86,8.86,0,0,0,2.16.2,13.17,13.17,0,0,1-3.86,0,10.32,10.32,0,0,1-3.31-1.09,9.37,9.37,0,0,1-1.76-1.25,10.76,10.76,0,0,1-2.59-3.84,18.32,18.32,0,0,1-1.18-5.24,54.47,54.47,0,0,1,.92-13.16c.8-4.34,1.82-8.87,2.72-13.46.18-.91.36-1.84.52-2.76a109.08,109.08,0,0,0,1.56-11.13q.24-2.76.27-5.49a58.18,58.18,0,0,0-.47-8.18,48.37,48.37,0,0,0-1.63-7.6,44.3,44.3,0,0,0-1.8-4.89A41.34,41.34,0,0,0,153.06,90c-.59-.94-1.19-1.82-1.81-2.65-.46-.63-.93-1.22-1.41-1.78a30,30,0,0,0-3.29-3.35A16.75,16.75,0,0,0,145,81.07,6.31,6.31,0,0,0,143.48,80.32Z" transform="translate(-85.27 -62.21)"/><path class="cls-4" d="M145.83,89.44a4.72,4.72,0,0,1,2.26.83,12.3,12.3,0,0,1,2.35,2,20.75,20.75,0,0,1,1.46,1.84A27.74,27.74,0,0,1,154.61,99a36.66,36.66,0,0,1,2,6,50.94,50.94,0,0,1,1.21,13.69,102.19,102.19,0,0,1-2.61,16.52c-.85,3.66-1.81,7.3-2.72,10.85-.46,1.78-.91,3.54-1.33,5.27-.64,2.62-1.2,5.18-1.63,7.64-.35,2-.61,4-.75,5.91l-.06,1a32.35,32.35,0,0,0,.1,4.33,19.14,19.14,0,0,0,1,4.57,13.28,13.28,0,0,0,1,2.19,11.15,11.15,0,0,0,1,1.43,9.8,9.8,0,0,0,2.92,2.52,8.1,8.1,0,0,0,1.84.76,7.37,7.37,0,0,0,2.19.23,11.61,11.61,0,0,1-3.76,0,10,10,0,0,1-3.23-1.1,9,9,0,0,1-1.72-1.24,10.86,10.86,0,0,1-2.58-3.74,17.35,17.35,0,0,1-1.24-5,44.94,44.94,0,0,1,.87-12.47c.92-4.3,2.17-8.78,3.42-13.32.25-.91.5-1.82.74-2.73,1-3.67,2-7.35,2.74-11,.39-1.82.74-3.64,1-5.44a74.48,74.48,0,0,0,.87-8.12,54.49,54.49,0,0,0-.15-7.59,42.65,42.65,0,0,0-.75-4.93,37.57,37.57,0,0,0-1.59-5.44,29,29,0,0,0-1.19-2.76c-.31-.66-.65-1.28-1-1.88a23.25,23.25,0,0,0-2.57-3.63,11.32,11.32,0,0,0-1.37-1.33A4.43,4.43,0,0,0,145.83,89.44Z" transform="translate(-85.27 -62.21)"/><path class="cls-5" d="M146.08,98.6a3.76,3.76,0,0,1,2.12.81,9.07,9.07,0,0,1,1.92,2,14.89,14.89,0,0,1,1.07,1.81,23.78,23.78,0,0,1,1.73,4.73,33.66,33.66,0,0,1,.92,5.69,56.2,56.2,0,0,1-.63,12.93A144.13,144.13,0,0,1,149,143c-1.11,3.64-2.28,7.24-3.35,10.78-.54,1.77-1.06,3.52-1.53,5.24-.73,2.62-1.36,5.17-1.83,7.64a55.38,55.38,0,0,0-.84,6c0,.35-.05.69-.07,1a32.33,32.33,0,0,0,.05,4.42,20.94,20.94,0,0,0,.94,4.75,14.39,14.39,0,0,0,1,2.34,12.47,12.47,0,0,0,.93,1.55,10.84,10.84,0,0,0,2.89,2.84,7.76,7.76,0,0,0,1.86.88,6.06,6.06,0,0,0,2.24.25,10,10,0,0,1-3.65.06,9.65,9.65,0,0,1-4.88-2.37,11.85,11.85,0,0,1-2.67-3.66,17,17,0,0,1-1.4-4.82,37.62,37.62,0,0,1,.47-11.8,135.33,135.33,0,0,1,3.63-13.21c.29-.9.58-1.8.88-2.71,1.18-3.63,2.4-7.27,3.52-10.9q.84-2.72,1.58-5.4c.75-2.72,1.41-5.42,1.92-8.07a69.9,69.9,0,0,0,1.07-7.59c.14-1.7.19-3.36.17-5a40.54,40.54,0,0,0-.48-5.57c-.16-1-.36-2-.59-2.87-.18-.69-.37-1.35-.59-2a19,19,0,0,0-1.78-3.93,8.63,8.63,0,0,0-1.12-1.46A3.11,3.11,0,0,0,146.08,98.6Z" transform="translate(-85.27 -62.21)"/><path class="cls-6" d="M144.52,107.81a2.94,2.94,0,0,1,2,.79,6.87,6.87,0,0,1,1.51,2.05,13.35,13.35,0,0,1,.72,1.79,21.58,21.58,0,0,1,.9,4.59,35.9,35.9,0,0,1,.07,5.42,68.49,68.49,0,0,1-2,12.19c-1.49,5.37-3.43,10.85-5.36,16.26-1.3,3.6-2.59,7.19-3.74,10.71-.59,1.76-1.13,3.51-1.63,5.23-.76,2.61-1.39,5.17-1.86,7.66a50.64,50.64,0,0,0-.81,6c0,.35,0,.7-.05,1a32.08,32.08,0,0,0,.11,4.52,23.31,23.31,0,0,0,1,5,19.08,19.08,0,0,0,1,2.49,15.38,15.38,0,0,0,1,1.68,12.09,12.09,0,0,0,3,3.18,7.58,7.58,0,0,0,1.93,1,5.49,5.49,0,0,0,2.3.29,9,9,0,0,1-3.53.06,10.24,10.24,0,0,1-3.14-1.18,10.7,10.7,0,0,1-1.74-1.26,13.25,13.25,0,0,1-2.82-3.6,17.79,17.79,0,0,1-1.67-4.63,32.82,32.82,0,0,1-.23-11.16,92.47,92.47,0,0,1,3.4-13.13c.29-.89.59-1.79.9-2.69,1.24-3.59,2.59-7.21,3.91-10.81q1-2.69,2-5.36c1-2.71,1.87-5.39,2.67-8s1.48-5.13,2-7.6c.38-1.72.69-3.39.93-5a49,49,0,0,0,.51-5.7c0-1,0-2,0-3,0-.72-.1-1.41-.18-2.09a18.25,18.25,0,0,0-1-4.23,6.7,6.7,0,0,0-.84-1.6A2.23,2.23,0,0,0,144.52,107.81Z" transform="translate(-85.27 -62.21)"/><path class="cls-7" d="M141.45,117.07a2.27,2.27,0,0,1,1.8.77,5.63,5.63,0,0,1,1.13,2.06,12.58,12.58,0,0,1,.41,1.78,22.71,22.71,0,0,1,.19,4.46,41.68,41.68,0,0,1-.59,5.16,87.43,87.43,0,0,1-2.94,11.45c-1.88,5.35-4.08,10.78-6.16,16.16-1.4,3.59-2.74,7.16-3.9,10.67q-.88,2.64-1.61,5.23a74.38,74.38,0,0,0-1.74,7.68,48.76,48.76,0,0,0-.63,6.1l0,1.07a33.58,33.58,0,0,0,.28,4.65,25.13,25.13,0,0,0,1.24,5.18,20.5,20.5,0,0,0,1.15,2.66,18.33,18.33,0,0,0,1.08,1.83,14.36,14.36,0,0,0,3.26,3.55,8.36,8.36,0,0,0,2.08,1.17,5.25,5.25,0,0,0,2.4.32,7.7,7.7,0,0,1-3.41,0,10.68,10.68,0,0,1-3.17-1.24,13.32,13.32,0,0,1-1.79-1.29,15.49,15.49,0,0,1-3-3.57,19,19,0,0,1-2-4.46A29.92,29.92,0,0,1,124.26,188,69,69,0,0,1,127,174.9q.41-1.34.84-2.67c1.16-3.57,2.51-7.17,3.9-10.75q1-2.67,2.12-5.33c1.07-2.69,2.14-5.37,3.15-8s1.91-5.13,2.74-7.62c.57-1.73,1.09-3.43,1.54-5.09q.84-3,1.36-5.84c.2-1.07.35-2.11.47-3.11.09-.76.15-1.49.19-2.2a20.81,20.81,0,0,0-.17-4.55,6.24,6.24,0,0,0-.56-1.74A1.66,1.66,0,0,0,141.45,117.07Z" transform="translate(-85.27 -62.21)"/><path class="cls-8" d="M137.14,126.36a1.81,1.81,0,0,1,1.64.77,5.1,5.1,0,0,1,.76,2.09,13.58,13.58,0,0,1,.13,1.76,26.66,26.66,0,0,1-.38,4.34c-.26,1.55-.63,3.2-1.08,4.91-.9,3.41-2.17,7.06-3.53,10.74-2.15,5.33-4.49,10.73-6.61,16.09-1.41,3.57-2.72,7.13-3.82,10.64-.55,1.75-1,3.5-1.47,5.23a61.19,61.19,0,0,0-1.45,7.73,45,45,0,0,0-.33,6.19c0,.37,0,.73,0,1.1a33.93,33.93,0,0,0,.56,4.78,28.75,28.75,0,0,0,1.62,5.44,24.22,24.22,0,0,0,1.39,2.85,21.64,21.64,0,0,0,1.27,2,18.22,18.22,0,0,0,3.74,4,9.89,9.89,0,0,0,2.31,1.33,5.2,5.2,0,0,0,2.54.36,6.94,6.94,0,0,1-3.3,0,12.11,12.11,0,0,1-3.24-1.33A17.53,17.53,0,0,1,126,216a19.6,19.6,0,0,1-3.36-3.56,22.5,22.5,0,0,1-2.46-4.3,29.2,29.2,0,0,1-2.25-10,52.84,52.84,0,0,1,1.57-13c.2-.89.43-1.77.67-2.66,1-3.56,2.19-7.13,3.53-10.7.67-1.77,1.38-3.55,2.09-5.32,1.1-2.68,2.22-5.35,3.34-8s2.17-5.15,3.18-7.67q1-2.61,2-5.15c.77-2.06,1.45-4.07,2-6,.33-1.1.64-2.18.91-3.24.2-.79.38-1.56.53-2.32a24.3,24.3,0,0,0,.59-4.87,5.88,5.88,0,0,0-.28-1.89A1.36,1.36,0,0,0,137.14,126.36Z" transform="translate(-85.27 -62.21)"/><path class="cls-9" d="M131.89,135.71a1.4,1.4,0,0,1,1.46.76,4.84,4.84,0,0,1,.43,2.12,15.82,15.82,0,0,1-.11,1.76,33.8,33.8,0,0,1-.85,4.24c-.39,1.49-.88,3.06-1.42,4.67-1.09,3.22-2.44,6.62-3.82,10.05-2.29,5.3-4.65,10.68-6.68,16A111.68,111.68,0,0,0,117.39,186c-.48,1.76-.9,3.51-1.24,5.25a56,56,0,0,0-1,7.8,41.25,41.25,0,0,0,.12,6.3c0,.38.08.75.12,1.12a35.84,35.84,0,0,0,1,4.95,31.55,31.55,0,0,0,2.18,5.71,29,29,0,0,0,1.74,3.06c.48.74,1,1.46,1.55,2.16a23.83,23.83,0,0,0,4.47,4.39,13.09,13.09,0,0,0,2.67,1.5,5.27,5.27,0,0,0,2.71.41,6,6,0,0,1-3.2,0,13.59,13.59,0,0,1-3.38-1.44,18.26,18.26,0,0,1-2-1.38,24.36,24.36,0,0,1-3.75-3.57,28,28,0,0,1-2.94-4.17,30.77,30.77,0,0,1-3.47-9.41,44.31,44.31,0,0,1,0-13c.12-.89.27-1.77.43-2.66a84.22,84.22,0,0,1,2.77-10.67Q117,179.62,118,177c1-2.68,2.11-5.36,3.24-8s2.24-5.18,3.36-7.73c.77-1.76,1.54-3.51,2.28-5.24.91-2.1,1.77-4.17,2.56-6.18.45-1.15.88-2.28,1.27-3.38.3-.84.58-1.65.83-2.45a31.3,31.3,0,0,0,1.28-5.22,6.2,6.2,0,0,0,0-2A1.12,1.12,0,0,0,131.89,135.71Z" transform="translate(-85.27 -62.21)"/><path class="cls-10" d="M126,145.1a1.1,1.1,0,0,1,1.27.77,5.1,5.1,0,0,1,.12,2.16,17.8,17.8,0,0,1-.32,1.76,41.32,41.32,0,0,1-1.2,4.15c-.5,1.44-1.05,2.93-1.65,4.45-1.18,3-2.53,6.19-3.86,9.37-2.31,5.3-4.57,10.65-6.4,16a88.05,88.05,0,0,0-3,10.63c-.38,1.77-.67,3.53-.89,5.28a49.77,49.77,0,0,0-.35,7.88,40.71,40.71,0,0,0,.73,6.43c.07.39.15.77.24,1.16a37.89,37.89,0,0,0,1.54,5.11,36.83,36.83,0,0,0,3,6,35.1,35.1,0,0,0,2.23,3.28c.61.8,1.26,1.59,2,2.35a31.16,31.16,0,0,0,5.49,4.86,16.63,16.63,0,0,0,3.15,1.69,5.8,5.8,0,0,0,3,.47,5.53,5.53,0,0,1-3.13-.1,17.22,17.22,0,0,1-3.6-1.56c-.77-.45-1.51-.93-2.24-1.45a32.52,32.52,0,0,1-4.22-3.61,36.46,36.46,0,0,1-3.46-4.06,35.75,35.75,0,0,1-4.72-8.88,39.9,39.9,0,0,1-2.05-13c0-.88,0-1.77.08-2.66a61.74,61.74,0,0,1,1.65-10.66c.43-1.77.93-3.54,1.48-5.31.84-2.69,1.8-5.37,2.85-8s2.13-5.23,3.26-7.81q1.19-2.69,2.39-5.34c1-2.15,2-4.28,2.88-6.37.53-1.2,1-2.38,1.54-3.54.37-.87.73-1.73,1.06-2.58a42.74,42.74,0,0,0,1.86-5.57,7,7,0,0,0,.21-2.18C126.77,145.55,126.51,145.15,126,145.1Z" transform="translate(-85.27 -62.21)"/><path class="cls-11" d="M119.74,154.53a.89.89,0,0,1,1.09.79,6.07,6.07,0,0,1-.16,2.21,43.61,43.61,0,0,1-2,5.86c-1.68,4.17-3.64,8.55-5.48,13a146.44,146.44,0,0,0-8,26.66,48.88,48.88,0,0,0,0,13.29,40.29,40.29,0,0,0,1.49,6.58,44.09,44.09,0,0,0,2.64,6.5,45.11,45.11,0,0,0,3.94,6.36,46.83,46.83,0,0,0,5.36,6.07,42,42,0,0,0,6.85,5.37,21.86,21.86,0,0,0,3.78,1.89,6.42,6.42,0,0,0,3.26.53,5.11,5.11,0,0,1-3.09-.18,21.7,21.7,0,0,1-3.93-1.71,43.21,43.21,0,0,1-7.26-5.21,46.43,46.43,0,0,1-10-12.35,40.68,40.68,0,0,1-4.53-13.09,47.75,47.75,0,0,1-.19-13.35,72.06,72.06,0,0,1,3.07-13.41,138.84,138.84,0,0,1,5.19-13.36c1-2.22,2-4.41,3-6.59s2-4.33,2.91-6.42a54.1,54.1,0,0,0,2.3-5.94,8,8,0,0,0,.39-2.34C120.51,155,120.27,154.57,119.74,154.53Z" transform="translate(-85.27 -62.21)"/><path class="cls-12" d="M232.15,62.21c-1.84.32-5.08,2-9.28,4.95a77.33,77.33,0,0,0-6.69,5.38,76.22,76.22,0,0,0-6.72,6.83,63.32,63.32,0,0,0-10.16,16,62.16,62.16,0,0,0-4.46,17,124.51,124.51,0,0,0-.59,16.56A122.8,122.8,0,0,1,194,143.6c-.47,4.29-1.64,7.84-3.82,10.13s-5.26,3.34-8.79,3.42c3.7.38,7-.35,9.44-2.45a11.42,11.42,0,0,0,2.86-4.09,22,22,0,0,0,1.47-5.74c.59-4.26.43-9.32.32-14.61a138.9,138.9,0,0,1,.31-16.62,62.46,62.46,0,0,1,3.92-17,60.2,60.2,0,0,1,9.41-16,76.05,76.05,0,0,1,12.94-12.44A41.59,41.59,0,0,1,232.15,62.21Z" transform="translate(-85.27 -62.21)"/><path class="cls-13" d="M224.74,71.24a8.21,8.21,0,0,0-2.52.9A24.62,24.62,0,0,0,219,74.2c-.76.56-1.55,1.2-2.37,1.91a53,53,0,0,0-5.18,5.2,56.62,56.62,0,0,0-4.86,6.54A53.28,53.28,0,0,0,200,103.1a66.48,66.48,0,0,0-1.7,16.86c.07,3.74.37,7.45.74,11.06.18,1.8.38,3.58.58,5.33.3,2.65.58,5.23.76,7.68.15,2.05.23,4,.2,5.87,0,.33,0,.67,0,1a28.32,28.32,0,0,1-.45,4.18,16.46,16.46,0,0,1-1.37,4.27,10.9,10.9,0,0,1-1.22,2,8.59,8.59,0,0,1-1.12,1.21,9.82,9.82,0,0,1-3.24,2,11.39,11.39,0,0,1-1.91.52,12.26,12.26,0,0,1-2.14.19,14.47,14.47,0,0,0,3.95,0,10.64,10.64,0,0,0,3.41-1.08,9.08,9.08,0,0,0,1.81-1.27,10.61,10.61,0,0,0,2.69-3.95,19.76,19.76,0,0,0,1.25-5.49,69.63,69.63,0,0,0-.54-13.87c-.53-4.38-1.17-9-1.56-13.61-.07-.93-.14-1.86-.2-2.8a79.84,79.84,0,0,1,0-11.26q.21-2.79.69-5.55A52.3,52.3,0,0,1,202.78,98a51.78,51.78,0,0,1,3.35-7.63,54.13,54.13,0,0,1,7.13-10.1c.81-.9,1.63-1.76,2.45-2.55.6-.59,1.21-1.15,1.8-1.68A38.53,38.53,0,0,1,221.45,73c.61-.4,1.19-.76,1.74-1.06A9.78,9.78,0,0,1,224.74,71.24Z" transform="translate(-85.27 -62.21)"/><path class="cls-14" d="M220,80.32a6.16,6.16,0,0,0-2.39.86,16.4,16.4,0,0,0-2.79,2.06,25.49,25.49,0,0,0-1.9,1.87,37,37,0,0,0-3.85,5,41.92,41.92,0,0,0-3.29,6.25,49,49,0,0,0-3.58,14.46,77.76,77.76,0,0,0,.65,16.68c.5,3.7,1.17,7.37,1.85,11,.34,1.79.69,3.55,1,5.29.5,2.64.95,5.2,1.27,7.66.28,2,.47,4,.54,5.88l0,1a32,32,0,0,1-.23,4.25,17.9,17.9,0,0,1-1.13,4.41,11.48,11.48,0,0,1-1.09,2.06A9.72,9.72,0,0,1,201,172.6a9.27,9.27,0,0,1-1.86.64,8.91,8.91,0,0,1-2.16.2,13.17,13.17,0,0,0,3.86,0,10.32,10.32,0,0,0,3.31-1.09,9,9,0,0,0,1.75-1.25,10.65,10.65,0,0,0,2.6-3.84,18.32,18.32,0,0,0,1.17-5.24,54.42,54.42,0,0,0-.91-13.16c-.8-4.34-1.83-8.87-2.72-13.46-.18-.91-.36-1.84-.53-2.76-.68-3.7-1.25-7.43-1.56-11.13-.15-1.84-.25-3.67-.26-5.49a55.32,55.32,0,0,1,.47-8.18,48.36,48.36,0,0,1,1.62-7.6,44.34,44.34,0,0,1,1.81-4.89A40.14,40.14,0,0,1,210.43,90c.58-.94,1.19-1.82,1.81-2.65.46-.63.93-1.22,1.4-1.78a30,30,0,0,1,3.3-3.35,16.75,16.75,0,0,1,1.58-1.19A6.45,6.45,0,0,1,220,80.32Z" transform="translate(-85.27 -62.21)"/><path class="cls-15" d="M217.66,89.44a4.75,4.75,0,0,0-2.27.83,12.58,12.58,0,0,0-2.34,2,19.07,19.07,0,0,0-1.46,1.84A28.41,28.41,0,0,0,208.87,99a35.72,35.72,0,0,0-2,6,50.53,50.53,0,0,0-1.21,13.69,101.07,101.07,0,0,0,2.6,16.52c.86,3.66,1.82,7.3,2.73,10.85.46,1.78.91,3.54,1.33,5.27.64,2.62,1.2,5.18,1.63,7.64a59.24,59.24,0,0,1,.74,5.91q0,.51.06,1a30.81,30.81,0,0,1-.09,4.33,19.64,19.64,0,0,1-1,4.57,13.31,13.31,0,0,1-1,2.19,10.14,10.14,0,0,1-.95,1.43,9.93,9.93,0,0,1-2.92,2.52,8,8,0,0,1-1.85.76,7.3,7.3,0,0,1-2.18.23,11.61,11.61,0,0,0,3.76,0,9.82,9.82,0,0,0,3.22-1.1,8.74,8.74,0,0,0,1.72-1.24,10.88,10.88,0,0,0,2.59-3.74,17.35,17.35,0,0,0,1.24-5,44.59,44.59,0,0,0-.88-12.47c-.91-4.3-2.17-8.78-3.41-13.32l-.75-2.73c-1-3.67-2-7.35-2.74-11-.39-1.82-.73-3.64-1-5.44a69.84,69.84,0,0,1-.87-8.12,53,53,0,0,1,.15-7.59,44.94,44.94,0,0,1,.74-4.93,37.57,37.57,0,0,1,1.59-5.44c.37-1,.77-1.89,1.19-2.76.32-.66.65-1.28,1-1.88a22.6,22.6,0,0,1,2.57-3.63,10,10,0,0,1,1.37-1.33A4.33,4.33,0,0,1,217.66,89.44Z" transform="translate(-85.27 -62.21)"/><path class="cls-16" d="M217.41,98.6a3.74,3.74,0,0,0-2.12.81,9.07,9.07,0,0,0-1.92,2,16.33,16.33,0,0,0-1.08,1.81,24.42,24.42,0,0,0-1.73,4.73,34.69,34.69,0,0,0-.92,5.69,57.34,57.34,0,0,0,.63,12.93A144.19,144.19,0,0,0,214.45,143c1.11,3.64,2.28,7.24,3.35,10.78.54,1.77,1.06,3.52,1.53,5.24.73,2.62,1.35,5.17,1.83,7.64a58,58,0,0,1,.84,6c0,.35.05.69.07,1a32.28,32.28,0,0,1-.06,4.42,20.94,20.94,0,0,1-.93,4.75,15.34,15.34,0,0,1-1,2.34,11.41,11.41,0,0,1-.94,1.55,10.7,10.7,0,0,1-2.89,2.84,7.58,7.58,0,0,1-1.86.88,6,6,0,0,1-2.23.25,10,10,0,0,0,3.65.06,9.52,9.52,0,0,0,3.17-1.13,9.8,9.8,0,0,0,1.71-1.24,11.67,11.67,0,0,0,2.66-3.66,17.37,17.37,0,0,0,1.41-4.82,37.93,37.93,0,0,0-.47-11.8,135.45,135.45,0,0,0-3.64-13.21l-.87-2.71c-1.19-3.63-2.41-7.27-3.52-10.9q-.84-2.72-1.58-5.4c-.76-2.72-1.41-5.42-1.92-8.07a67.52,67.52,0,0,1-1.07-7.59,49.34,49.34,0,0,1-.17-5,39,39,0,0,1,.48-5.57c.16-1,.36-2,.59-2.87.18-.69.37-1.35.58-2A19.58,19.58,0,0,1,215,100.9a8.63,8.63,0,0,1,1.12-1.46A3,3,0,0,1,217.41,98.6Z" transform="translate(-85.27 -62.21)"/><path class="cls-17" d="M219,107.81a2.91,2.91,0,0,0-2,.79,6.87,6.87,0,0,0-1.51,2.05,13.36,13.36,0,0,0-.73,1.79,22.24,22.24,0,0,0-.89,4.59,35.9,35.9,0,0,0-.07,5.42,68.49,68.49,0,0,0,2,12.19c1.49,5.37,3.42,10.85,5.36,16.26,1.29,3.6,2.59,7.19,3.74,10.71.58,1.76,1.13,3.51,1.63,5.23.75,2.61,1.39,5.17,1.86,7.66a50.57,50.57,0,0,1,.8,6q0,.53.06,1a33.66,33.66,0,0,1-.11,4.52,23.31,23.31,0,0,1-1,5,17.81,17.81,0,0,1-1,2.49,13.86,13.86,0,0,1-1,1.68,12.26,12.26,0,0,1-3,3.18,7.58,7.58,0,0,1-1.93,1,5.51,5.51,0,0,1-2.31.29,9,9,0,0,0,3.54.06,10.44,10.44,0,0,0,3.14-1.18,11.15,11.15,0,0,0,1.74-1.26,13.22,13.22,0,0,0,2.81-3.6,17.81,17.81,0,0,0,1.68-4.63,33.08,33.08,0,0,0,.23-11.16,93.83,93.83,0,0,0-3.4-13.13c-.3-.89-.6-1.79-.91-2.69-1.24-3.59-2.58-7.21-3.9-10.81-.66-1.79-1.32-3.58-1.95-5.36-1-2.71-1.87-5.39-2.68-8s-1.48-5.13-2-7.6c-.38-1.72-.7-3.39-.93-5a49,49,0,0,1-.51-5.7c0-1,0-2,0-3,0-.72.1-1.41.19-2.09a18.25,18.25,0,0,1,1-4.23,6.7,6.7,0,0,1,.84-1.6A2.21,2.21,0,0,1,219,107.81Z" transform="translate(-85.27 -62.21)"/><path class="cls-18" d="M222,117.07a2.29,2.29,0,0,0-1.81.77,5.62,5.62,0,0,0-1.12,2.06,12.58,12.58,0,0,0-.41,1.78,22.67,22.67,0,0,0-.2,4.46,43.68,43.68,0,0,0,.59,5.16A87.54,87.54,0,0,0,222,142.75c1.87,5.35,4.08,10.78,6.16,16.16,1.4,3.59,2.74,7.16,3.9,10.67q.87,2.64,1.61,5.23a71.76,71.76,0,0,1,1.73,7.68,47,47,0,0,1,.64,6.1c0,.36,0,.72,0,1.07a33.58,33.58,0,0,1-.28,4.65,25.13,25.13,0,0,1-1.23,5.18,19.26,19.26,0,0,1-1.16,2.66,16.53,16.53,0,0,1-1.07,1.83,14.59,14.59,0,0,1-3.27,3.55A8.36,8.36,0,0,1,227,208.7a5.22,5.22,0,0,1-2.39.32,7.7,7.7,0,0,0,3.41,0,10.73,10.73,0,0,0,3.16-1.24,14.09,14.09,0,0,0,1.8-1.29,15.74,15.74,0,0,0,3-3.57,19.89,19.89,0,0,0,2-4.46A30.15,30.15,0,0,0,239.23,188a69,69,0,0,0-2.71-13.07q-.41-1.34-.84-2.67c-1.17-3.57-2.51-7.17-3.91-10.75q-1.05-2.67-2.11-5.33c-1.08-2.69-2.14-5.37-3.15-8s-1.91-5.13-2.74-7.62q-.86-2.6-1.55-5.09c-.55-2-1-4-1.35-5.84-.2-1.07-.36-2.11-.47-3.11-.09-.76-.16-1.49-.2-2.2a20.17,20.17,0,0,1,.18-4.55,5.93,5.93,0,0,1,.56-1.74A1.66,1.66,0,0,1,222,117.07Z" transform="translate(-85.27 -62.21)"/><path class="cls-19" d="M226.35,126.36a1.81,1.81,0,0,0-1.64.77,5,5,0,0,0-.76,2.09,12,12,0,0,0-.13,1.76,25.59,25.59,0,0,0,.38,4.34,49.33,49.33,0,0,0,1.08,4.91c.9,3.41,2.16,7.06,3.53,10.74,2.14,5.33,4.49,10.73,6.61,16.09,1.41,3.57,2.72,7.13,3.81,10.64.55,1.75,1.05,3.5,1.48,5.23a63,63,0,0,1,1.45,7.73,45,45,0,0,1,.33,6.19c0,.37,0,.73,0,1.1a33.93,33.93,0,0,1-.57,4.78,28,28,0,0,1-1.61,5.44,25.89,25.89,0,0,1-1.39,2.85,21.64,21.64,0,0,1-1.27,2,18.22,18.22,0,0,1-3.74,4,10,10,0,0,1-2.32,1.33,5.16,5.16,0,0,1-2.53.36,6.94,6.94,0,0,0,3.3,0,12.11,12.11,0,0,0,3.24-1.33,16.48,16.48,0,0,0,1.89-1.33,19.31,19.31,0,0,0,3.37-3.56,23,23,0,0,0,2.45-4.3,29.21,29.21,0,0,0,2.26-10,53.32,53.32,0,0,0-1.57-13c-.21-.89-.43-1.77-.68-2.66-1-3.56-2.19-7.13-3.52-10.7-.68-1.77-1.38-3.55-2.1-5.32-1.09-2.68-2.21-5.35-3.33-8s-2.17-5.15-3.18-7.67q-1.07-2.61-2-5.15c-.77-2.06-1.45-4.07-2.05-6-.34-1.1-.64-2.18-.91-3.24-.2-.79-.38-1.56-.54-2.32a25,25,0,0,1-.58-4.87,5.62,5.62,0,0,1,.28-1.89A1.33,1.33,0,0,1,226.35,126.36Z" transform="translate(-85.27 -62.21)"/><path class="cls-20" d="M231.59,135.71a1.41,1.41,0,0,0-1.46.76,4.85,4.85,0,0,0-.42,2.12,15.82,15.82,0,0,0,.11,1.76,33.67,33.67,0,0,0,.84,4.24c.4,1.49.88,3.06,1.43,4.67,1.09,3.22,2.43,6.62,3.82,10.05,2.29,5.3,4.65,10.68,6.68,16,1.35,3.56,2.56,7.11,3.51,10.62q.72,2.64,1.23,5.25a54.57,54.57,0,0,1,1,7.8,42.57,42.57,0,0,1-.12,6.3c0,.38-.08.75-.13,1.12a35.82,35.82,0,0,1-1,4.95,31.55,31.55,0,0,1-2.18,5.71,30.86,30.86,0,0,1-1.74,3.06c-.49.74-1,1.46-1.56,2.16a23.78,23.78,0,0,1-4.46,4.39,13.36,13.36,0,0,1-2.67,1.5,5.29,5.29,0,0,1-2.72.41,6,6,0,0,0,3.21,0,13.75,13.75,0,0,0,3.38-1.44,19.23,19.23,0,0,0,2-1.38,24.36,24.36,0,0,0,3.75-3.57,28,28,0,0,0,2.94-4.17,31,31,0,0,0,3.47-9.41,44.31,44.31,0,0,0,0-13c-.12-.89-.26-1.77-.42-2.66a84.28,84.28,0,0,0-2.78-10.67q-.87-2.66-1.88-5.31c-1-2.68-2.1-5.36-3.23-8s-2.24-5.18-3.36-7.73q-1.17-2.64-2.29-5.24c-.9-2.1-1.76-4.17-2.55-6.18-.46-1.15-.89-2.28-1.28-3.38-.3-.84-.57-1.65-.83-2.45a31.2,31.2,0,0,1-1.27-5.22,6.52,6.52,0,0,1,0-2A1.13,1.13,0,0,1,231.59,135.71Z" transform="translate(-85.27 -62.21)"/><path class="cls-21" d="M237.49,145.1a1.11,1.11,0,0,0-1.28.77,5.12,5.12,0,0,0-.11,2.16c.07.56.18,1.15.31,1.76.3,1.3.72,2.7,1.21,4.15s1,2.93,1.64,4.45c1.19,3,2.53,6.19,3.86,9.37,2.32,5.3,4.57,10.65,6.4,16a88.13,88.13,0,0,1,3,10.63c.37,1.77.67,3.53.88,5.28a51,51,0,0,1,.36,7.88A41.92,41.92,0,0,1,253,214l-.24,1.16a39.44,39.44,0,0,1-1.55,5.11,36,36,0,0,1-2.94,6,37.15,37.15,0,0,1-2.23,3.28c-.62.8-1.27,1.59-2,2.35a31.1,31.1,0,0,1-5.48,4.86,16.63,16.63,0,0,1-3.15,1.69,5.82,5.82,0,0,1-3,.47,5.53,5.53,0,0,0,3.13-.1,17.06,17.06,0,0,0,3.61-1.56c.76-.45,1.51-.93,2.24-1.45a33.2,33.2,0,0,0,4.22-3.61,36.36,36.36,0,0,0,3.45-4.06,35.46,35.46,0,0,0,4.73-8.88,39.9,39.9,0,0,0,2-13c0-.88,0-1.77-.08-2.66a62.72,62.72,0,0,0-1.65-10.66c-.44-1.77-.93-3.54-1.49-5.31-.83-2.69-1.79-5.37-2.84-8s-2.13-5.23-3.26-7.81q-1.18-2.69-2.4-5.34c-1-2.15-1.94-4.28-2.87-6.37-.54-1.2-1.05-2.38-1.54-3.54-.37-.87-.73-1.73-1.07-2.58a41.14,41.14,0,0,1-1.85-5.57,7.4,7.4,0,0,1-.22-2.18C236.71,145.55,237,145.15,237.49,145.1Z" transform="translate(-85.27 -62.21)"/><path class="cls-22" d="M243.74,154.53a.89.89,0,0,0-1.08.79,6,6,0,0,0,.15,2.21,43.75,43.75,0,0,0,2,5.86c1.67,4.17,3.63,8.55,5.47,13a144.88,144.88,0,0,1,8,26.66,48.88,48.88,0,0,1,0,13.29,42.48,42.48,0,0,1-1.49,6.58,43.09,43.09,0,0,1-2.65,6.5,45,45,0,0,1-3.93,6.36,46.92,46.92,0,0,1-5.37,6.07,42.33,42.33,0,0,1-6.84,5.37,22.23,22.23,0,0,1-3.78,1.89,6.42,6.42,0,0,1-3.26.53,5.11,5.11,0,0,0,3.09-.18,22,22,0,0,0,3.93-1.71,43.21,43.21,0,0,0,7.26-5.21,46.43,46.43,0,0,0,10-12.35,41.17,41.17,0,0,0,4.53-13.09,48.13,48.13,0,0,0,.19-13.35,73.69,73.69,0,0,0-3.07-13.41,138.84,138.84,0,0,0-5.19-13.36c-1-2.22-2-4.41-3-6.59s-2-4.33-2.92-6.42a56,56,0,0,1-2.29-5.94,8.41,8.41,0,0,1-.4-2.34C243,155,243.22,154.57,243.74,154.53Z" transform="translate(-85.27 -62.21)"/></g><g id="Слой_3" data-name="Слой 3"><path class="cls-23" d="M88.49,281.88a.32.32,0,0,1-.3-.15.65.65,0,0,1-.08-.31c0-.24.07-.37.17-.4a1.16,1.16,0,0,1,.35,0,1.45,1.45,0,0,0,1-.24,1,1,0,0,0,.34-.61,3.87,3.87,0,0,0,.08-.77v-10H88.55a2,2,0,0,0-1.11.31,1.59,1.59,0,0,0-.59.88,10.41,10.41,0,0,0-.34,1.54c0,.13-.1.22-.26.29a1.35,1.35,0,0,1-.47.09.65.65,0,0,1-.33-.1.35.35,0,0,1-.18-.32l.07-3a.43.43,0,0,1,.16-.4.77.77,0,0,1,.4-.1H96.17a.67.67,0,0,1,.39.1.43.43,0,0,1,.16.4l.08,3a.35.35,0,0,1-.18.32.66.66,0,0,1-.34.1,1.19,1.19,0,0,1-.44-.09.42.42,0,0,1-.28-.29,10.41,10.41,0,0,0-.34-1.54,1.76,1.76,0,0,0-.59-.88,2,2,0,0,0-1.13-.31H92.08v10a6.27,6.27,0,0,0,.08.77,1,1,0,0,0,.35.61,1.44,1.44,0,0,0,.93.24,1.28,1.28,0,0,1,.36,0c.1,0,.15.16.17.4a.56.56,0,0,1-.09.31.3.3,0,0,1-.29.15c-.45,0-.87,0-1.27-.05H91.11C90.27,281.82,89.4,281.84,88.49,281.88Z" transform="translate(-85.27 -62.21)"/><path class="cls-24" d="M102.14,281.88a.3.3,0,0,1-.28-.15.65.65,0,0,1-.08-.31c0-.24.07-.37.17-.4a1.16,1.16,0,0,1,.35,0,1.45,1.45,0,0,0,1-.24,1.11,1.11,0,0,0,.35-.61,4.79,4.79,0,0,0,.07-.77V271a4.67,4.67,0,0,0-.07-.76,1.08,1.08,0,0,0-.35-.61,1.45,1.45,0,0,0-1-.24,1.13,1.13,0,0,1-.35-.05c-.1,0-.16-.16-.17-.39a.69.69,0,0,1,.08-.32.3.3,0,0,1,.28-.15l1.28.05,1.21,0h6.6a.71.71,0,0,1,.39.1.45.45,0,0,1,.15.4l.07,2.94a.35.35,0,0,1-.2.32.79.79,0,0,1-.37.1,1,1,0,0,1-.42-.09.44.44,0,0,1-.23-.29,8.65,8.65,0,0,0-.35-1.52,1.62,1.62,0,0,0-.58-.84,2.06,2.06,0,0,0-1.13-.28h-2.81v5.33h3.8a.31.31,0,0,1,.24.17.67.67,0,0,1,.07.31.59.59,0,0,1-.07.29.25.25,0,0,1-.24.13h-3.8v4a4.74,4.74,0,0,0,.08.6.93.93,0,0,0,.37.56,1.69,1.69,0,0,0,1,.21h1.93a2.63,2.63,0,0,0,1.12-.24,1.52,1.52,0,0,0,.62-.75,12.65,12.65,0,0,0,.51-1.45.42.42,0,0,1,.28-.27.88.88,0,0,1,.43,0,.78.78,0,0,1,.35.14.34.34,0,0,1,.15.34l-.42,2.65c0,.19-.1.32-.19.36a.9.9,0,0,1-.41.08h-8.16C103,281.84,102.6,281.85,102.14,281.88Z" transform="translate(-85.27 -62.21)"/><path class="cls-25" d="M117.28,281.88a.32.32,0,0,1-.3-.15.65.65,0,0,1-.08-.31c0-.24.07-.37.17-.4a1.16,1.16,0,0,1,.35,0,1.38,1.38,0,0,0,.86-.23,1.72,1.72,0,0,0,.48-.61c.12-.25.23-.51.34-.78l3.68-8.69a1,1,0,0,0,.08-.77.72.72,0,0,0-.42-.38,4.64,4.64,0,0,0-.65-.18,2.3,2.3,0,0,1-.42-.11c-.07,0-.1-.16-.1-.37s.08-.37.25-.39a5,5,0,0,1,.59,0,5.71,5.71,0,0,1,1.47.17,2.22,2.22,0,0,1,1,.64,4.79,4.79,0,0,1,.82,1.42l3.52,8.69.32.74a1.77,1.77,0,0,0,.45.62,1.21,1.21,0,0,0,.72.26,1.22,1.22,0,0,1,.37,0c.09,0,.15.16.16.4a.56.56,0,0,1-.09.31.33.33,0,0,1-.29.15c-.45,0-.84,0-1.17-.05H128.3c-.82,0-1.69,0-2.6.06a.32.32,0,0,1-.3-.15.65.65,0,0,1-.08-.31c0-.24.07-.37.17-.4a1.2,1.2,0,0,1,.35,0c.69,0,1.07-.13,1.13-.38a2.6,2.6,0,0,0-.2-1.24l-.72-1.74h-5.18l-.45,1.15c-.09.24-.15.39-.17.46a.48.48,0,0,1,0,.13,4.32,4.32,0,0,0-.25,1.06.43.43,0,0,0,.34.45,4.46,4.46,0,0,0,1.17.11,1.19,1.19,0,0,1,.36,0c.09,0,.15.16.16.4a.56.56,0,0,1-.09.31.33.33,0,0,1-.29.15c-.45,0-.83,0-1.16-.05h-1.83l-.58,0Zm4-5.16h4.41l-2.12-5.4h-.07Z" transform="translate(-85.27 -62.21)"/><path class="cls-26" d="M137.63,281.88a.32.32,0,0,1-.3-.15.65.65,0,0,1-.08-.31c0-.24.07-.37.17-.4a1.16,1.16,0,0,1,.35,0,1.45,1.45,0,0,0,.95-.24,1,1,0,0,0,.34-.61,3.87,3.87,0,0,0,.08-.77v-10h-1.45a2,2,0,0,0-1.11.31,1.59,1.59,0,0,0-.59.88,10.41,10.41,0,0,0-.34,1.54c0,.13-.1.22-.26.29a1.35,1.35,0,0,1-.47.09.65.65,0,0,1-.33-.1.35.35,0,0,1-.18-.32l.07-3a.43.43,0,0,1,.16-.4.77.77,0,0,1,.4-.1h10.27a.67.67,0,0,1,.39.1.43.43,0,0,1,.16.4l.08,3a.35.35,0,0,1-.18.32.66.66,0,0,1-.34.1,1.19,1.19,0,0,1-.44-.09.42.42,0,0,1-.28-.29,9.27,9.27,0,0,0-.34-1.54,1.76,1.76,0,0,0-.59-.88,2,2,0,0,0-1.12-.31h-1.43v10a6.27,6.27,0,0,0,.08.77,1,1,0,0,0,.35.61,1.44,1.44,0,0,0,.93.24,1.28,1.28,0,0,1,.36,0c.1,0,.15.16.17.4a.56.56,0,0,1-.09.31.3.3,0,0,1-.29.15c-.45,0-.87,0-1.27-.05h-1.21C139.41,281.82,138.54,281.84,137.63,281.88Z" transform="translate(-85.27 -62.21)"/><path class="cls-27" d="M151.28,281.88a.32.32,0,0,1-.29-.15.56.56,0,0,1-.09-.31c0-.24.07-.37.18-.4a1.28,1.28,0,0,1,.36,0,1.45,1.45,0,0,0,.95-.24,1.11,1.11,0,0,0,.35-.61,4.79,4.79,0,0,0,.07-.77V271a4.67,4.67,0,0,0-.07-.76,1.08,1.08,0,0,0-.35-.61,1.45,1.45,0,0,0-.95-.24,1.25,1.25,0,0,1-.36-.05c-.11,0-.17-.16-.18-.39a.59.59,0,0,1,.09-.32.32.32,0,0,1,.29-.15l1.28.05,1.24,0H157c.26,0,.61,0,1,.06a9.39,9.39,0,0,1,1.36.25,5,5,0,0,1,1.38.61,3.42,3.42,0,0,1,1.06,1.11,3.46,3.46,0,0,1,.41,1.75,3.55,3.55,0,0,1-.46,1.78,4.58,4.58,0,0,1-1.19,1.37,5.83,5.83,0,0,1-1.68.87,6.23,6.23,0,0,1-1.9.3,9.22,9.22,0,0,1-1-.06,4.24,4.24,0,0,1-1.09-.27v3a6.27,6.27,0,0,0,.08.77,1,1,0,0,0,.35.61,1.44,1.44,0,0,0,.93.24,1.34,1.34,0,0,1,.38,0c.1,0,.15.16.17.4a.5.5,0,0,1-.1.31.3.3,0,0,1-.28.15c-.9,0-1.77-.06-2.63-.06h-1.22C152.15,281.84,151.72,281.85,151.28,281.88Zm5.08-6.15a4.09,4.09,0,0,0,1.08-.16,3.82,3.82,0,0,0,1.15-.52,3,3,0,0,0,.92-1,3.31,3.31,0,0,0,.35-1.63,3,3,0,0,0-.42-1.69,2.55,2.55,0,0,0-1-.91,4,4,0,0,0-1.23-.38,7.17,7.17,0,0,0-1-.09,2.44,2.44,0,0,0-.8.11.69.69,0,0,0-.41.45,3.87,3.87,0,0,0-.11,1.06v4.54a3.16,3.16,0,0,0,.61.15A4.71,4.71,0,0,0,156.36,275.73Z" transform="translate(-85.27 -62.21)"/><path class="cls-28" d="M178.93,282.18a2.83,2.83,0,0,1-1.86-.58,1.79,1.79,0,0,1-.66-1.44,1.66,1.66,0,0,1,.49-1.21,1.46,1.46,0,0,1,1-.43,1.15,1.15,0,0,1,.66.17q.24.17.24.27t-.18.24a.8.8,0,0,0-.2.58,1.25,1.25,0,0,0,.24.81,1,1,0,0,0,.83.35c.93,0,1.69-.66,2.29-2-.34-.61-.7-1.3-1.08-2s-.77-1.49-1.15-2.24-.72-1.45-1-2.09-.59-1.17-.81-1.58-.34-.63-.48-.85a1.62,1.62,0,0,0-.45-.51,1.67,1.67,0,0,0-.71-.28,2.67,2.67,0,0,1-.41-.1c-.08,0-.12-.15-.12-.38s.09-.37.25-.4a2.78,2.78,0,0,1,.59,0,5.67,5.67,0,0,1,1.57.22,2.54,2.54,0,0,1,1,.66,8.27,8.27,0,0,1,.91,1.31c.19.36.41.81.66,1.34s.55,1.18.92,1.93.85,1.66,1.44,2.71H183l2.71-6.17c.13-.34.13-.58,0-.73a.89.89,0,0,0-.6-.27,6.19,6.19,0,0,0-.89,0,1.25,1.25,0,0,1-.36-.05c-.09,0-.15-.16-.16-.39a.69.69,0,0,1,.08-.32.29.29,0,0,1,.27-.15l1.24.05,1.2,0,1,0,1.06-.05a.3.3,0,0,1,.29.15.59.59,0,0,1,.09.32c0,.23-.07.37-.16.39a1.18,1.18,0,0,1-.37.05,1.88,1.88,0,0,0-.8.14,1.12,1.12,0,0,0-.44.47l-.42.81-3.8,8.09a7.63,7.63,0,0,1-1.69,2.41A3.32,3.32,0,0,1,178.93,282.18Z" transform="translate(-85.27 -62.21)"/><path class="cls-29" d="M196.57,281.88a.3.3,0,0,1-.29-.15.56.56,0,0,1-.09-.31c0-.24.07-.37.17-.4a1.28,1.28,0,0,1,.36,0,1.42,1.42,0,0,0,.94-.24,1.05,1.05,0,0,0,.35-.61,3.87,3.87,0,0,0,.07-.77v-10h-1.44a2.07,2.07,0,0,0-1.12.31,1.7,1.7,0,0,0-.59.88,12.08,12.08,0,0,0-.33,1.54.37.37,0,0,1-.26.29,1.4,1.4,0,0,1-.48.09.65.65,0,0,1-.32-.1.35.35,0,0,1-.18-.32l.06-3a.44.44,0,0,1,.17-.4.72.72,0,0,1,.4-.1h10.27a.71.71,0,0,1,.39.1.45.45,0,0,1,.15.4l.09,3a.35.35,0,0,1-.18.32.67.67,0,0,1-.35.1,1.23,1.23,0,0,1-.44-.09.43.43,0,0,1-.27-.29,9.16,9.16,0,0,0-.35-1.54,1.7,1.7,0,0,0-.59-.88,2,2,0,0,0-1.12-.31h-1.43v10a6.24,6.24,0,0,0,.09.77,1,1,0,0,0,.34.61,1.45,1.45,0,0,0,.94.24,1.28,1.28,0,0,1,.36,0c.09,0,.15.16.16.4a.65.65,0,0,1-.08.31.32.32,0,0,1-.29.15c-.45,0-.88,0-1.28-.05h-1.2C198.36,281.82,197.48,281.84,196.57,281.88Z" transform="translate(-85.27 -62.21)"/><path class="cls-30" d="M216.9,282.24a6.53,6.53,0,0,1-2.77-.57,6.45,6.45,0,0,1-2.12-1.53,6.84,6.84,0,0,1-1.35-2.2,7.18,7.18,0,0,1-.46-2.57,7.54,7.54,0,0,1,.6-3.09,7,7,0,0,1,1.58-2.26,6.82,6.82,0,0,1,2.18-1.4,6.18,6.18,0,0,1,2.34-.47,6.86,6.86,0,0,1,2.82.56,6.41,6.41,0,0,1,2.14,1.54,6.84,6.84,0,0,1,1.34,2.19,7.15,7.15,0,0,1,.46,2.55,7.38,7.38,0,0,1-.61,3.09,6.82,6.82,0,0,1-1.61,2.27,7.52,7.52,0,0,1-2.2,1.4A6,6,0,0,1,216.9,282.24Zm0-.93a3.41,3.41,0,0,0,2.43-.88,5.25,5.25,0,0,0,1.4-2.32,10.41,10.41,0,0,0,.45-3.12,9,9,0,0,0-.47-2.93,5.08,5.08,0,0,0-1.42-2.18,3.51,3.51,0,0,0-2.39-.83,3.41,3.41,0,0,0-2.41.87,5.1,5.1,0,0,0-1.37,2.29,10.23,10.23,0,0,0-.44,3.1,9.44,9.44,0,0,0,.45,2.95,4.92,4.92,0,0,0,1.4,2.21A3.44,3.44,0,0,0,216.88,281.31Z" transform="translate(-85.27 -62.21)"/><path class="cls-31" d="M229.65,281.88a.32.32,0,0,1-.3-.15.65.65,0,0,1-.08-.31c0-.24.07-.37.17-.4a1.16,1.16,0,0,1,.35,0,1.45,1.45,0,0,0,1-.24,1.11,1.11,0,0,0,.35-.61,4.79,4.79,0,0,0,.07-.77V271a4.67,4.67,0,0,0-.07-.76,1.08,1.08,0,0,0-.35-.61,1.45,1.45,0,0,0-1-.24,1.13,1.13,0,0,1-.35-.05c-.1,0-.16-.16-.17-.39a.69.69,0,0,1,.08-.32.32.32,0,0,1,.3-.15l1.26.05,1.21,0h8.17c.84,0,1.71,0,2.61-.07a.31.31,0,0,1,.28.15.6.6,0,0,1,.1.32c0,.23-.07.37-.17.39a1.35,1.35,0,0,1-.38.05,1.42,1.42,0,0,0-.93.24,1,1,0,0,0-.35.61c0,.24-.07.5-.09.76v8.34c0,.27,0,.52.09.77a1,1,0,0,0,.35.61,1.42,1.42,0,0,0,.93.24,1.38,1.38,0,0,1,.38,0c.1,0,.15.16.17.4a.57.57,0,0,1-.1.31.31.31,0,0,1-.28.15c-.9,0-1.77-.06-2.63-.06H239c-.39,0-.82,0-1.27.05a.31.31,0,0,1-.29-.15.55.55,0,0,1-.08-.31c0-.24.07-.37.16-.4a1.28,1.28,0,0,1,.36,0,1.47,1.47,0,0,0,1-.24,1.09,1.09,0,0,0,.34-.61,6.22,6.22,0,0,0,.1-.77v-9.95H234.6a1.4,1.4,0,0,0-1,.19.86.86,0,0,0-.33.6,7.15,7.15,0,0,0,0,.82v8.34a6.27,6.27,0,0,0,.08.77,1,1,0,0,0,.35.61,1.44,1.44,0,0,0,.93.24,1.22,1.22,0,0,1,.37,0c.09,0,.14.16.16.4a.56.56,0,0,1-.09.31.3.3,0,0,1-.29.15c-.9,0-1.76-.06-2.6-.06h-1.23C230.52,281.84,230.09,281.85,229.65,281.88Z" transform="translate(-85.27 -62.21)"/><path class="cls-32" d="M249.41,281.88a.32.32,0,0,1-.3-.15.65.65,0,0,1-.08-.31c0-.24.07-.37.17-.4a1.16,1.16,0,0,1,.35,0,1.45,1.45,0,0,0,.95-.24,1.11,1.11,0,0,0,.35-.61,6.24,6.24,0,0,0,.09-.77V271a6.08,6.08,0,0,0-.09-.76,1.08,1.08,0,0,0-.35-.61,1.45,1.45,0,0,0-.95-.24,1.13,1.13,0,0,1-.35-.05c-.1,0-.16-.16-.17-.39a.69.69,0,0,1,.08-.32.32.32,0,0,1,.3-.15l1.27.05,1.23,0c.85,0,1.73,0,2.62-.07a.3.3,0,0,1,.28.15.53.53,0,0,1,.1.32c0,.23-.07.37-.17.39a1.3,1.3,0,0,1-.38.05,1.44,1.44,0,0,0-.93.24,1,1,0,0,0-.35.61,6.1,6.1,0,0,0-.08.76v8.34a6.27,6.27,0,0,0,.08.77,1,1,0,0,0,.35.61,1.44,1.44,0,0,0,.93.24,1.34,1.34,0,0,1,.38,0c.1,0,.16.16.17.4a.5.5,0,0,1-.1.31.3.3,0,0,1-.28.15c-.89,0-1.76-.06-2.6-.06h-1.24C250.28,281.84,249.86,281.85,249.41,281.88Z" transform="translate(-85.27 -62.21)"/><path class="cls-33" d="M261.69,282a2.84,2.84,0,0,1-.82-.13,2,2,0,0,1-.78-.42,1.35,1.35,0,0,1-.46-.78.57.57,0,0,1,.07-.33.27.27,0,0,1,.29-.15.32.32,0,0,1,.28.21,2.26,2.26,0,0,0,.3.41.79.79,0,0,0,.49.24,1.23,1.23,0,0,0,1.05-.43,5.07,5.07,0,0,0,.84-1.23c.27-.5.56-1,.86-1.53a8.53,8.53,0,0,1,1-1.36,3.7,3.7,0,0,1,1.43-.95v-.06a5.43,5.43,0,0,1-3.11-1.09,3.13,3.13,0,0,1-.77-1,2.92,2.92,0,0,1-.28-1.38,3.16,3.16,0,0,1,.41-1.58,3.08,3.08,0,0,1,1-1,4.91,4.91,0,0,1,1.3-.59,6.62,6.62,0,0,1,1.36-.25,6.26,6.26,0,0,1,1.14,0h3.26l1.23,0,1.29-.05a.31.31,0,0,1,.28.15.59.59,0,0,1,.09.32c0,.23-.07.37-.16.39a1.35,1.35,0,0,1-.38.05,1.45,1.45,0,0,0-.94.24,1,1,0,0,0-.34.61,6.08,6.08,0,0,0-.09.76v8.34a6.24,6.24,0,0,0,.09.77,1,1,0,0,0,.34.61,1.45,1.45,0,0,0,.94.24,1.38,1.38,0,0,1,.38,0c.09,0,.15.16.16.4a.56.56,0,0,1-.09.31.31.31,0,0,1-.28.15c-.45,0-.88,0-1.28-.05H270.6c-.84,0-1.72,0-2.63.06a.3.3,0,0,1-.29-.15.56.56,0,0,1-.09-.31c0-.24.07-.37.17-.4a1.28,1.28,0,0,1,.36,0,1.42,1.42,0,0,0,.94-.24,1.05,1.05,0,0,0,.35-.61,4.77,4.77,0,0,0,.09-.77v-3.53H269a2.48,2.48,0,0,0-1.4.38,3.3,3.3,0,0,0-.94,1,14.78,14.78,0,0,0-.75,1.32c-.26.56-.56,1.11-.88,1.65a4.11,4.11,0,0,1-1.26,1.33A3.66,3.66,0,0,1,261.69,282Zm6.74-7h1.07v-4a3,3,0,0,0-.1-1,.75.75,0,0,0-.42-.45,2.44,2.44,0,0,0-.8-.11,4.21,4.21,0,0,0-2.75.7,2.57,2.57,0,0,0-1,2.15,2.51,2.51,0,0,0,.46,1.61,2.59,2.59,0,0,0,1.11.83,4.5,4.5,0,0,0,1.32.3Q268,275.06,268.43,275.06Z" transform="translate(-85.27 -62.21)"/></g></svg>