<?xml version="1.0" standalone="no"?>
<!DOCTYPE svg PUBLIC "-//W3C//DTD SVG 20010904//EN"
 "http://www.w3.org/TR/2001/REC-SVG-20010904/DTD/svg10.dtd">
<svg version="1.0" xmlns="http://www.w3.org/2000/svg"
 width="752.000000pt" height="752.000000pt" viewBox="0 0 752.000000 752.000000"
 preserveAspectRatio="xMidYMid meet">
<metadata>
Created by potrace 1.14, written by Peter Selinger 2001-2017
</metadata>
<g transform="translate(0.000000,752.000000) scale(0.100000,-0.100000)"
fill="#000000" stroke="none">
<path d="M1845 7474 c39 -20 76 -41 83 -46 7 -6 12 -7 12 -1 0 10 -140 83
-156 83 -5 -1 23 -17 61 -36z"/>
<path d="M5698 7492 c-21 -9 -38 -20 -38 -25 0 -6 75 27 89 39 10 9 -17 2 -51
-14z"/>
<path d="M5545 7406 c-266 -162 -518 -387 -740 -662 -175 -216 -327 -495 -410
-751 -14 -45 -28 -93 -31 -107 -2 -14 -9 -37 -14 -51 -5 -14 -7 -25 -5 -25 2
0 0 -11 -5 -26 -6 -14 -12 -39 -15 -57 -3 -18 -8 -45 -12 -62 -4 -16 -7 -37
-8 -45 -2 -27 -17 -144 -21 -165 -11 -55 -16 -264 -19 -695 -1 -261 -5 -486
-8 -500 -3 -14 -9 -47 -12 -74 -29 -250 -185 -433 -395 -462 -46 -6 -51 -14
-8 -14 101 0 236 50 297 111 67 67 129 185 145 276 3 15 8 39 11 53 16 71 26
256 24 425 -7 600 0 884 27 1025 2 14 7 43 9 65 19 144 112 443 186 600 52
110 140 269 151 273 4 2 8 10 8 18 0 8 3 14 8 14 4 0 16 17 27 37 11 20 25 41
30 47 6 6 22 27 35 46 13 19 27 37 30 40 3 3 16 19 29 35 59 77 200 226 311
329 96 88 300 245 388 298 100 59 97 57 91 62 -2 2 -49 -24 -104 -58z"/>
<path d="M1950 7422 c1 -4 30 -25 67 -47 36 -22 71 -45 77 -50 6 -6 27 -22 46
-35 19 -14 46 -34 60 -46 14 -12 61 -52 105 -90 87 -75 224 -211 295 -294 25
-29 50 -58 56 -64 5 -6 38 -47 71 -91 140 -184 277 -440 347 -647 25 -76 75
-254 81 -292 34 -195 38 -231 52 -395 3 -37 6 -307 7 -601 1 -294 5 -548 9
-565 7 -29 17 -87 19 -102 0 -5 12 -39 25 -78 70 -193 197 -295 386 -309 69
-6 68 9 -2 18 -68 9 -163 59 -217 114 -72 74 -128 199 -150 336 -3 21 -8 48
-11 60 -4 11 -7 233 -9 491 -1 259 -5 511 -8 560 -12 196 -18 253 -37 350 -6
28 -12 61 -14 75 -6 42 -44 186 -72 273 -15 45 -27 84 -28 87 -1 3 -9 22 -18
44 -9 21 -17 41 -17 44 0 14 -100 209 -153 297 -173 288 -377 517 -702 784
-11 9 -36 27 -55 41 -19 13 -37 27 -40 30 -3 3 -23 17 -45 30 -22 13 -42 27
-45 30 -10 12 -80 49 -80 42z"/>
<path d="M2070 7144 c0 -2 11 -9 25 -14 37 -14 175 -109 175 -120 0 -6 5 -10
11 -10 12 0 53 -36 143 -126 339 -338 543 -767 601 -1259 20 -168 20 -452 0
-660 -4 -38 -8 -86 -10 -105 -6 -70 -26 -231 -40 -335 -2 -16 -7 -57 -11 -90
-3 -33 -8 -67 -9 -76 -9 -45 -18 -259 -17 -369 4 -318 99 -507 292 -575 50
-18 202 -32 162 -15 -13 6 -38 13 -55 16 -48 8 -123 53 -173 103 -42 43 -108
160 -120 213 -9 43 -14 63 -24 113 -9 47 -6 406 4 485 3 19 7 60 10 90 4 30 8
73 11 95 6 57 15 143 20 195 2 25 7 68 10 95 24 228 34 556 20 685 -3 30 -7
73 -9 95 -5 56 -15 118 -33 205 -8 41 -17 84 -19 95 -5 27 -10 47 -17 65 -3 8
-13 40 -23 70 -44 143 -122 314 -206 454 -34 55 -64 103 -67 106 -4 3 -25 30
-46 60 -45 63 -162 198 -215 249 -29 28 -135 119 -188 162 -51 41 -202 118
-202 103z"/>
<path d="M5400 7127 c-48 -25 -132 -76 -140 -86 -3 -3 -23 -19 -45 -36 -53
-39 -251 -237 -300 -300 -22 -27 -42 -52 -45 -55 -22 -18 -169 -254 -209 -336
-67 -136 -130 -295 -146 -364 -1 -8 -8 -33 -14 -55 -12 -46 -38 -174 -45 -225
-4 -32 -8 -61 -21 -195 -10 -98 -5 -428 9 -555 6 -59 13 -128 21 -225 3 -33 8
-80 11 -105 11 -86 12 -95 19 -165 4 -38 9 -88 12 -110 2 -22 6 -128 8 -236 4
-222 -12 -330 -66 -447 -44 -97 -157 -203 -229 -217 -11 -2 -24 -6 -29 -9 -5
-3 -26 -8 -47 -12 -68 -11 -52 -17 28 -10 172 14 279 84 355 233 12 24 22 44
22 46 -1 1 4 22 11 47 15 55 18 72 26 130 6 48 6 345 0 395 -2 17 -7 64 -10
105 -4 41 -9 82 -11 90 -2 8 -7 40 -11 70 -3 30 -7 66 -9 80 -2 14 -6 54 -10
90 -4 36 -9 78 -11 94 -3 16 -7 54 -9 85 -3 31 -7 76 -10 101 -16 147 -23 479
-11 567 3 21 8 67 12 103 3 36 8 74 10 85 2 10 6 37 10 60 22 148 103 393 188
565 43 89 140 249 176 293 6 7 39 48 73 92 73 91 174 196 265 273 53 46 87 71
209 149 30 20 11 14 -37 -10z"/>
<path d="M2306 6751 c95 -62 220 -205 317 -361 51 -82 127 -240 127 -262 0 -8
4 -18 9 -23 9 -10 28 -67 57 -175 19 -69 26 -103 49 -236 16 -98 22 -345 11
-489 -11 -151 -30 -320 -36 -320 -1 0 -3 -16 -5 -35 -2 -19 -6 -51 -10 -70 -3
-19 -8 -48 -10 -64 -2 -15 -7 -35 -9 -45 -3 -9 -8 -29 -10 -46 -3 -16 -10 -55
-16 -85 -6 -30 -13 -66 -16 -80 -2 -14 -11 -54 -19 -90 -8 -36 -17 -81 -20
-100 -3 -19 -12 -63 -20 -97 -8 -34 -22 -108 -30 -165 -9 -56 -19 -114 -21
-128 -11 -51 -12 -377 -2 -430 36 -198 124 -319 269 -369 62 -22 163 -35 154
-21 -3 6 -12 10 -18 10 -31 0 -121 54 -170 102 -116 112 -158 264 -152 538 3
80 6 154 8 165 3 11 8 45 12 75 4 30 9 64 11 75 2 10 6 35 9 55 5 35 10 61 20
110 2 14 7 39 10 55 3 17 7 39 9 50 29 145 81 438 91 510 2 17 7 47 11 68 10
64 25 192 30 267 5 73 5 370 0 426 -16 185 -60 370 -129 544 -113 288 -326
565 -503 654 -74 37 -77 32 -8 -13z"/>
<path d="M5214 6764 c-75 -40 -174 -126 -239 -209 -17 -21 -35 -43 -42 -50
-60 -62 -192 -311 -248 -465 -27 -78 -71 -248 -80 -316 -2 -22 -6 -48 -9 -59
-23 -114 -23 -489 -1 -645 3 -19 7 -53 9 -75 2 -22 9 -67 15 -100 5 -33 13
-78 16 -100 3 -23 8 -52 10 -65 3 -14 8 -38 10 -55 18 -100 29 -160 40 -215 2
-14 7 -41 10 -60 3 -19 8 -42 10 -50 2 -8 7 -31 10 -50 3 -19 8 -48 12 -65 3
-16 7 -39 9 -50 2 -11 5 -31 8 -45 7 -35 25 -173 34 -250 11 -104 6 -330 -8
-395 -8 -33 -15 -66 -16 -72 -8 -42 -75 -154 -118 -198 -51 -52 -144 -105
-184 -105 -11 0 -23 -4 -26 -8 -3 -5 11 -8 32 -7 197 10 321 106 387 300 25
74 30 124 29 295 0 165 -6 232 -30 363 -8 45 -18 96 -20 112 -3 17 -19 91 -34
166 -16 74 -32 151 -35 170 -3 19 -17 88 -30 154 -61 314 -89 547 -89 760 1
104 12 296 19 316 2 8 7 32 9 54 24 198 124 473 235 650 93 147 259 333 332
371 16 8 29 17 29 19 0 8 -5 6 -56 -21z"/>
<path d="M2413 6367 c108 -108 192 -265 253 -477 27 -93 32 -115 40 -175 3
-22 9 -65 14 -95 8 -56 6 -438 -3 -475 -2 -11 -7 -45 -11 -75 -11 -87 -14
-113 -20 -147 -3 -18 -8 -46 -11 -62 -20 -114 -72 -333 -141 -586 -14 -49 -27
-99 -29 -109 -3 -10 -16 -58 -29 -105 -25 -86 -80 -304 -90 -351 -30 -149 -37
-192 -42 -267 -21 -272 5 -428 91 -558 69 -103 167 -158 308 -169 52 -5 56 8
5 18 -74 15 -186 113 -233 206 -22 43 -46 117 -61 185 -10 48 -12 285 -3 350
5 33 11 83 14 110 4 28 20 113 37 190 17 77 32 149 33 160 2 11 4 20 5 20 1 0
3 7 5 15 2 8 29 114 60 235 31 121 58 227 60 235 2 8 11 47 20 85 9 39 19 81
21 94 3 14 7 28 9 32 3 4 7 24 11 44 3 21 8 47 10 59 9 37 32 169 39 216 3 25
8 56 10 70 34 229 26 508 -21 734 -31 150 -110 343 -186 454 -45 66 -149 167
-186 180 -29 10 -28 7 21 -41z"/>
<path d="M5114 6394 c-127 -85 -246 -273 -313 -492 -17 -53 -32 -108 -35 -122
-2 -14 -7 -36 -10 -50 -35 -157 -41 -484 -12 -690 14 -95 19 -124 33 -200 20
-112 20 -111 43 -210 11 -47 22 -94 24 -105 9 -44 55 -225 60 -233 3 -5 7 -19
10 -33 4 -23 21 -93 31 -131 6 -22 6 -21 49 -198 19 -80 38 -161 41 -180 3
-19 10 -53 15 -76 5 -22 12 -67 16 -100 3 -32 10 -81 14 -109 4 -27 7 -108 6
-180 -4 -212 -54 -359 -154 -459 -49 -50 -131 -96 -170 -96 -13 0 -21 -4 -18
-9 9 -14 111 -3 170 19 141 53 246 201 272 385 8 56 9 306 1 346 -3 15 -9 53
-12 85 -8 64 -58 283 -100 434 -14 52 -27 102 -29 110 -2 8 -18 67 -36 130
-17 63 -32 120 -34 125 -1 6 -8 30 -15 55 -7 25 -14 52 -16 60 -2 8 -13 53
-25 99 -11 46 -25 102 -29 125 -5 22 -16 75 -24 116 -9 41 -18 92 -21 113 -13
83 -17 113 -22 137 -18 108 -25 436 -11 564 33 302 150 586 307 745 56 56 54
65 -6 25z"/>
<path d="M2392 6019 c51 -54 102 -164 134 -289 33 -132 39 -189 38 -375 0
-138 -3 -189 -18 -310 -7 -57 -17 -108 -61 -315 -2 -8 -11 -44 -20 -80 -9 -36
-18 -69 -20 -75 -1 -5 -4 -17 -7 -25 -3 -8 -18 -58 -32 -110 -15 -52 -29 -102
-32 -110 -3 -8 -6 -17 -6 -20 -1 -3 -16 -50 -35 -105 -19 -55 -36 -108 -38
-117 -2 -9 -21 -70 -43 -135 -90 -268 -152 -487 -193 -673 -19 -87 -23 -136
-24 -285 0 -99 3 -196 6 -215 30 -165 113 -299 226 -366 57 -33 92 -43 173
-51 61 -5 80 2 30 12 -70 14 -159 85 -217 173 -32 49 -89 182 -78 182 2 0 0
11 -5 24 -21 56 -31 280 -16 381 3 22 8 63 12 90 4 41 22 129 59 290 21 90
102 365 200 675 70 222 145 495 171 625 45 223 53 301 53 500 0 77 -2 151 -4
165 -2 14 -6 48 -9 76 -27 227 -151 463 -262 498 -16 5 -12 -3 18 -35z"/>
<path d="M5135 6044 c-72 -37 -147 -149 -194 -290 -22 -65 -26 -83 -46 -191
-7 -37 -16 -190 -16 -278 -1 -90 13 -261 27 -325 3 -14 7 -41 10 -60 2 -19 10
-53 15 -75 6 -22 13 -51 16 -64 2 -13 11 -51 19 -85 9 -34 19 -77 24 -96 19
-83 111 -387 269 -895 22 -70 80 -317 95 -400 35 -206 37 -448 5 -533 -6 -15
-10 -29 -10 -32 2 -37 -65 -171 -115 -229 -49 -56 -136 -112 -179 -114 -18 -1
-31 -6 -28 -11 9 -14 124 0 185 24 110 41 212 163 253 300 26 89 30 127 30
285 0 152 -5 213 -24 295 -5 25 -12 56 -14 70 -3 14 -15 61 -27 105 -12 44
-23 88 -25 97 -9 45 -153 498 -165 520 -6 10 -10 28 -10 41 0 13 -3 27 -7 31
-4 4 -13 24 -19 44 -102 322 -147 482 -181 652 -9 47 -10 50 -13 53 -1 1 -3
11 -4 22 -2 17 -10 67 -32 195 -3 21 -16 244 -16 275 4 269 80 539 183 647 40
42 39 46 -6 22z"/>
<path d="M2310 5668 c59 -63 93 -206 94 -393 0 -92 -10 -230 -19 -275 -3 -14
-7 -38 -10 -55 -6 -50 -25 -147 -42 -210 -8 -33 -16 -68 -18 -77 -8 -37 -90
-304 -117 -378 -11 -30 -21 -62 -23 -70 -3 -12 -132 -361 -152 -410 -3 -8 -7
-19 -9 -25 -1 -5 -19 -55 -39 -110 -36 -97 -133 -385 -140 -415 -2 -8 -18 -71
-35 -140 -18 -69 -34 -134 -36 -145 -19 -91 -26 -159 -27 -265 -1 -82 3 -130
18 -250 5 -46 53 -171 86 -225 85 -141 211 -219 359 -223 l55 -2 -47 14 c-124
34 -236 158 -293 323 -42 121 -55 216 -49 383 2 74 6 148 8 163 20 130 33 192
67 324 42 169 146 490 226 703 3 8 7 20 9 25 1 6 10 30 19 55 9 25 37 104 61
175 25 72 48 137 51 145 3 8 7 20 8 26 2 6 14 44 28 85 41 124 86 296 102 389
3 19 7 46 10 60 33 185 37 426 10 548 -3 12 -7 32 -10 43 -19 89 -78 190 -124
214 -41 21 -46 19 -21 -7z"/>
<path d="M5205 5678 c-45 -26 -81 -78 -112 -162 -18 -52 -27 -90 -38 -172 -12
-88 -5 -340 12 -409 2 -11 5 -27 5 -35 0 -8 4 -33 9 -55 4 -22 18 -85 29 -140
12 -55 25 -111 30 -125 11 -33 53 -172 56 -185 4 -16 109 -320 159 -460 189
-528 272 -815 302 -1050 9 -72 10 -334 1 -390 -22 -140 -90 -292 -167 -373
-49 -52 -155 -117 -172 -106 -5 3 -9 0 -9 -6 0 -8 17 -10 53 -6 225 23 388
223 425 521 12 101 4 348 -13 398 -3 7 -6 23 -9 37 -2 14 -12 57 -20 95 -9 39
-19 81 -22 94 -3 14 -7 28 -10 33 -3 4 -7 16 -9 26 -1 9 -9 37 -16 62 -7 25
-13 47 -14 50 -8 34 -147 433 -205 585 -40 105 -90 244 -105 291 -9 27 -20 58
-25 69 -9 21 -76 230 -103 325 -15 51 -47 186 -61 255 -32 157 -43 268 -44
425 0 127 4 170 22 240 24 92 37 123 69 158 22 24 14 28 -18 10z"/>
<path d="M2191 5286 c23 -39 33 -101 33 -201 -1 -68 -10 -179 -19 -227 -3 -13
-10 -48 -15 -78 -34 -179 -181 -634 -274 -845 -7 -16 -19 -46 -26 -65 -6 -19
-16 -44 -21 -55 -5 -11 -28 -69 -52 -130 -62 -154 -60 -149 -63 -160 -1 -5 -8
-23 -15 -40 -7 -16 -13 -32 -14 -35 -1 -3 -4 -12 -8 -20 -46 -117 -154 -436
-163 -483 -2 -12 -8 -33 -13 -47 -10 -27 -33 -123 -37 -155 -1 -11 -3 -20 -4
-20 -2 0 -27 -138 -36 -202 -5 -39 -5 -203 0 -233 2 -14 7 -47 11 -73 10 -75
13 -86 41 -171 69 -209 199 -355 360 -402 62 -18 132 -25 139 -14 2 3 -6 6
-18 6 -76 0 -217 121 -285 244 -46 82 -98 230 -107 306 -4 27 -8 60 -11 74 -7
36 -6 235 1 305 5 53 22 155 40 250 3 17 13 57 22 90 8 33 17 71 20 85 6 36
140 433 173 515 15 38 40 102 55 140 15 39 32 81 38 95 5 14 11 30 13 35 1 6
8 24 15 40 7 17 13 32 14 35 3 10 59 154 75 195 235 591 299 1115 154 1250
-38 35 -47 31 -23 -9z"/>
<path d="M5333 5310 c-23 -10 -72 -84 -78 -122 -27 -151 -25 -285 6 -443 6
-27 12 -61 15 -75 2 -14 7 -31 10 -39 2 -8 7 -30 10 -49 14 -86 95 -331 200
-607 63 -165 121 -313 129 -330 24 -55 112 -298 155 -430 23 -71 45 -137 48
-145 6 -18 4 -9 40 -155 17 -66 34 -138 38 -160 3 -22 8 -49 11 -60 12 -63 18
-158 18 -295 0 -155 -3 -186 -29 -305 -17 -75 -68 -190 -119 -265 -65 -96
-184 -190 -241 -190 -8 0 -17 -4 -20 -8 -7 -11 69 -5 124 10 144 39 278 177
352 362 11 28 21 58 23 66 12 50 34 161 40 195 7 46 8 229 1 262 -4 21 -18
104 -21 133 -1 8 -5 26 -8 40 -3 14 -15 68 -27 120 -12 52 -33 129 -46 171
-14 42 -27 85 -29 95 -6 29 -89 261 -128 360 -19 49 -74 188 -122 309 -48 121
-103 263 -122 315 -19 52 -38 104 -44 115 -42 93 -161 489 -173 580 -2 11 -6
31 -9 45 -41 166 -39 391 3 472 11 21 19 38 17 37 -1 0 -12 -4 -24 -9z"/>
<path d="M2007 4920 c21 -43 20 -158 -2 -260 -3 -14 -7 -36 -10 -50 -3 -14
-12 -50 -20 -80 -9 -30 -17 -62 -19 -70 -21 -86 -77 -246 -173 -490 -30 -76
-198 -481 -219 -527 -71 -158 -212 -546 -254 -699 -12 -44 -24 -86 -27 -94 -3
-8 -7 -24 -9 -35 -1 -11 -8 -38 -13 -60 -29 -110 -52 -306 -52 -450 0 -264 92
-518 248 -680 101 -106 179 -155 284 -180 80 -18 97 -8 28 16 -30 11 -55 24
-57 29 -2 6 -9 10 -15 10 -24 0 -152 136 -194 205 -66 108 -134 276 -148 365
-3 19 -10 60 -15 90 -9 57 -6 369 5 430 27 157 49 261 75 355 17 61 32 117 35
125 26 99 184 520 246 657 10 23 19 48 19 55 0 8 4 18 8 23 5 6 32 69 61 140
29 72 61 148 71 170 48 107 167 476 175 540 2 11 8 38 13 60 26 99 36 279 20
346 -10 36 -50 89 -69 89 -4 0 -1 -14 8 -30z"/>
<path d="M5505 4932 c-49 -40 -65 -172 -40 -332 31 -208 145 -556 300 -915 7
-16 22 -52 33 -80 11 -27 39 -95 62 -150 71 -169 201 -524 215 -585 2 -8 15
-53 29 -100 14 -47 27 -96 29 -110 3 -14 12 -54 20 -90 8 -36 15 -72 15 -80 0
-8 3 -27 6 -43 3 -15 9 -39 12 -55 13 -64 12 -388 -1 -462 -23 -120 -25 -129
-47 -194 -76 -225 -251 -443 -384 -478 -51 -14 -59 -28 -11 -21 120 17 207 64
311 168 117 117 187 244 235 430 33 124 43 281 28 425 -16 145 -20 167 -52
314 -54 243 -147 502 -399 1111 -162 391 -204 498 -251 640 -102 313 -133 512
-93 593 18 36 13 40 -17 14z"/>
<path d="M1788 4557 c24 -29 17 -122 -21 -272 -5 -22 -91 -259 -109 -303 -6
-15 -12 -29 -13 -32 -1 -3 -9 -22 -18 -44 -9 -21 -17 -40 -17 -43 0 -2 -12
-30 -26 -61 -66 -145 -74 -163 -74 -167 0 -2 -41 -97 -90 -210 -100 -228 -181
-425 -228 -555 -46 -126 -124 -384 -138 -453 -2 -10 -5 -26 -8 -35 -6 -18 -12
-51 -21 -117 -4 -22 -8 -47 -10 -55 -20 -74 -28 -423 -13 -535 11 -79 54 -216
97 -310 38 -81 116 -209 151 -246 8 -9 35 -37 59 -63 24 -26 60 -59 80 -74 20
-15 45 -35 56 -45 57 -52 255 -121 271 -96 3 5 -6 9 -20 9 -51 0 -180 85 -267
177 -146 155 -271 401 -305 603 -3 14 -7 31 -9 38 -24 69 -24 426 0 553 3 13
7 41 10 64 33 226 150 594 310 970 106 249 131 307 150 350 12 28 48 118 80
200 31 83 62 164 68 180 7 17 12 32 13 35 0 3 10 37 22 75 44 146 59 207 68
284 3 31 7 57 9 59 7 8 -17 98 -32 114 -18 21 -41 25 -25 5z"/>
<path d="M5723 4562 c-19 -12 -33 -60 -33 -117 0 -45 8 -100 36 -232 12 -60
145 -434 194 -548 5 -11 24 -56 43 -100 19 -44 70 -163 112 -265 43 -102 81
-194 86 -205 14 -32 91 -239 93 -250 1 -5 4 -14 8 -20 16 -28 110 -359 123
-435 3 -19 11 -55 16 -79 19 -85 32 -234 33 -361 0 -168 -20 -326 -54 -415 -6
-17 -11 -31 -11 -33 9 -25 -94 -242 -161 -339 -110 -160 -273 -294 -378 -310
-43 -7 -37 -15 10 -12 58 4 168 42 205 71 6 4 37 28 71 53 172 126 316 348
385 594 29 104 29 104 34 311 4 172 -2 251 -30 410 -12 68 -67 286 -93 365
-14 44 -27 85 -28 90 -9 42 -144 391 -188 490 -8 17 -37 84 -66 150 -28 66
-57 134 -65 150 -7 17 -25 57 -40 90 -61 133 -199 477 -235 585 -66 199 -85
338 -48 362 7 4 9 8 3 8 -5 0 -15 -4 -22 -8z"/>
<path d="M1555 4185 c13 -35 14 -69 4 -115 -6 -25 -12 -52 -14 -60 -13 -61
-119 -316 -252 -610 -41 -91 -87 -192 -102 -225 -15 -33 -38 -85 -51 -115 -12
-30 -29 -68 -36 -85 -178 -422 -275 -767 -301 -1070 -11 -139 -6 -340 12 -425
3 -14 8 -41 11 -60 3 -19 12 -58 20 -86 8 -28 16 -60 18 -70 3 -11 9 -30 14
-44 17 -41 33 -85 35 -90 8 -26 111 -201 154 -261 151 -210 428 -420 575 -435
l43 -4 -40 13 c-206 70 -467 332 -607 611 -66 132 -117 284 -133 396 -3 25 -8
52 -10 60 -15 50 -21 286 -11 415 8 115 27 226 61 366 9 35 17 71 19 79 27
111 120 388 177 525 6 17 13 36 15 43 1 6 12 33 24 60 12 26 26 56 30 67 5 11
34 81 65 155 62 146 77 182 99 233 8 17 44 106 79 197 128 324 162 491 113
537 -18 17 -19 17 -11 -2z"/>
<path d="M5951 4168 c-13 -35 -5 -128 19 -210 26 -89 77 -242 96 -283 7 -16
31 -75 53 -130 21 -55 53 -130 70 -167 16 -38 28 -68 24 -68 -3 0 -1 -6 5 -12
12 -16 104 -231 175 -413 98 -251 182 -519 213 -685 2 -14 7 -38 11 -55 3 -16
7 -39 8 -50 2 -11 6 -45 10 -75 4 -30 9 -71 11 -90 4 -51 4 -290 0 -323 -2
-15 -7 -55 -11 -90 -4 -34 -9 -65 -11 -68 -2 -3 -6 -21 -9 -40 -15 -90 -68
-245 -120 -349 -142 -288 -383 -534 -602 -615 -32 -11 -34 -14 -13 -14 43 -1
165 54 253 113 77 52 201 164 273 246 72 84 214 317 214 353 0 10 5 17 10 17
6 0 9 3 8 8 -1 4 8 36 20 72 20 61 59 226 61 260 0 8 3 33 6 55 18 129 0 483
-30 585 -2 8 -6 26 -9 40 -11 62 -39 173 -66 262 -17 54 -30 99 -30 100 3 11
-144 389 -196 506 -13 29 -24 54 -24 56 0 4 -46 106 -95 211 -13 28 -51 113
-86 190 -34 77 -69 156 -77 175 -9 19 -16 37 -17 40 0 3 -11 28 -24 55 -67
146 -126 375 -101 390 13 8 13 25 0 25 -6 0 -14 -10 -19 -22z"/>
<path d="M6217 3800 c-18 -26 -13 -80 18 -176 24 -74 80 -220 110 -289 110
-248 219 -518 276 -685 39 -111 124 -389 134 -433 2 -12 11 -51 20 -87 34
-135 56 -237 63 -295 9 -65 8 -394 -1 -465 -15 -122 -58 -299 -87 -365 -5 -11
-19 -44 -30 -72 -100 -263 -329 -556 -585 -747 -121 -91 -190 -132 -280 -165
-37 -13 -47 -20 -27 -17 56 9 177 65 263 122 45 29 86 54 90 54 4 0 9 3 11 8
2 4 26 25 53 47 204 162 373 367 487 590 42 83 114 260 121 302 2 10 9 36 15
58 6 22 14 56 17 75 4 19 9 49 12 65 4 17 8 134 9 260 2 189 0 249 -16 335
-25 141 -28 157 -34 178 -3 9 -7 28 -10 42 -3 14 -12 52 -21 85 -9 33 -18 67
-20 75 -5 23 -83 249 -90 260 -3 6 -8 18 -10 27 -4 21 -82 215 -118 293 -13
30 -35 78 -47 105 -25 54 -62 137 -104 228 -95 208 -113 249 -149 339 -54 134
-74 229 -54 256 5 6 7 12 4 12 -3 0 -12 -9 -20 -20z"/>
<path d="M1302 3773 c-3 -60 -25 -145 -57 -218 -7 -16 -25 -59 -40 -95 -15
-36 -41 -94 -58 -130 -18 -35 -32 -67 -32 -70 -1 -3 -13 -31 -28 -62 -46 -98
-157 -346 -178 -395 -5 -13 -13 -33 -19 -45 -9 -22 -31 -77 -35 -88 -1 -3 -6
-16 -12 -30 -12 -29 -74 -204 -97 -272 -34 -102 -79 -287 -101 -412 -19 -109
-23 -167 -23 -346 0 -118 3 -237 8 -265 18 -106 21 -122 41 -195 38 -144 122
-337 190 -437 16 -24 29 -46 29 -48 0 -9 95 -132 154 -200 96 -109 162 -170
321 -293 43 -33 133 -86 191 -112 38 -18 76 -36 85 -40 9 -5 34 -11 55 -14
l39 -6 -40 13 c-175 59 -437 255 -589 440 -17 22 -43 53 -58 70 -15 18 -28 35
-28 38 0 3 -9 17 -21 30 -99 114 -249 453 -283 637 -47 252 -49 520 -6 707 6
28 13 59 16 70 2 11 9 44 15 72 5 29 10 54 9 55 -1 2 4 17 10 33 7 17 13 37
15 45 2 8 9 35 16 60 7 25 13 50 14 55 8 37 66 218 76 237 7 13 11 23 9 23 -6
0 62 198 89 260 5 11 17 40 26 65 9 25 23 59 30 75 44 98 192 452 224 538 37
97 69 218 65 245 -1 6 -2 19 -3 27 -2 31 -18 13 -19 -22z"/>
<path d="M3090 3060 c0 -5 5 -10 11 -10 5 0 7 5 4 10 -3 6 -8 10 -11 10 -2 0
-4 -4 -4 -10z"/>
</g>
</svg>
